<?xml version="1.0" encoding="UTF-8"?>
<svg id="Layer_1" data-name="Layer 1" xmlns="http://www.w3.org/2000/svg" viewBox="0 0 700 699.21">
  <defs>
    <style>
      .cls-1 {
        fill: #219bb7;
      }

      .cls-2 {
        fill: #a0d468;
      }

      .cls-3 {
        fill: #48cfad;
      }

      .cls-4 {
        fill: #5d9cec;
      }

      .cls-5 {
        fill: #fc6e51;
      }

      .cls-6 {
        fill: #ed5564;
      }

      .cls-7 {
        fill: #c1c1c1;
      }

      .cls-8 {
        fill: #40d3d3;
      }

      .cls-9 {
        fill: #4ba4bf;
      }

      .cls-10 {
        fill: #ffce54;
      }

      .cls-11 {
        fill: #71abcc;
      }

      .cls-12 {
        fill: #83d2e5;
      }

      .cls-13 {
        fill: #ac92eb;
      }
    </style>
  </defs>
  <path class="cls-8" d="M350.08,662.93c-2.32,2.29-5.51,3.72-9.04,3.69l-38.3-.21c-3.39-.02-6.62-1.37-9-3.78s-3.72-5.67-3.7-9.05l.56-134.06c.01-3.39,1.38-6.63,3.78-9.01,2.4-2.38,5.66-3.7,9.04-3.69l38.3,.21c7.06,.04,12.75,5.79,12.72,12.85l-.57,134.05c0,3.53-1.46,6.71-3.78,9Z"/>
  <path class="cls-11" d="M322.13,609.06c-11.94-.06-23.18,4.52-31.65,12.91-8.48,8.4-13.17,19.6-13.22,31.53-.1,24.64,19.87,44.81,44.5,44.94,11.93,.07,23.18-4.51,31.65-12.91,8.47-8.39,13.16-19.59,13.22-31.53,.11-24.63-19.85-44.79-44.5-44.94Z"/>
  <polygon class="cls-1" points="290.33 583.35 354.15 583.7 354.26 558.17 290.42 557.8 290.33 583.35"/>
  <path class="cls-3" d="M523.73,545.69c0,10.51-8.52,19.01-19.03,19.01s-19.03-8.5-19.03-19.01,8.52-19.04,19.03-19.04,19.03,8.53,19.03,19.04Z"/>
  <path class="cls-4" d="M33.33,282.54c0,9.2-7.46,16.68-16.66,16.68S0,291.74,0,282.54s7.46-16.65,16.66-16.65c9.2,0,16.66,7.45,16.66,16.65Z"/>
  <path class="cls-2" d="M700,249.21c0,9.2-7.47,16.67-16.68,16.67s-16.67-7.47-16.67-16.67,7.47-16.68,16.67-16.68,16.68,7.47,16.68,16.68Z"/>
  <path class="cls-13" d="M66.66,49.21c0,9.2-7.46,16.67-16.66,16.67s-16.68-7.47-16.68-16.67,7.47-16.68,16.68-16.68,16.66,7.47,16.66,16.68Z"/>
  <path class="cls-6" d="M342.42,20.67c0,9.2-7.47,16.65-16.67,16.65s-16.66-7.45-16.66-16.65,7.46-16.68,16.66-16.68c9.2,0,16.67,7.47,16.67,16.68Z"/>
  <path class="cls-10" d="M500,682.54c0,9.2-7.47,16.68-16.68,16.68s-16.68-7.47-16.68-16.68,7.47-16.65,16.68-16.65,16.68,7.45,16.68,16.65Z"/>
  <path class="cls-4" d="M616.65,449.21v-16.68c0-9.2-7.45-16.65-16.65-16.65s-16.67,7.44-16.67,16.65v16.68c-9.2,0-16.68,7.47-16.68,16.68s7.47,16.65,16.68,16.65v16.68c0,9.2,7.47,16.68,16.67,16.68s16.65-7.47,16.65-16.68v-16.68c9.2,0,16.68-7.45,16.68-16.65s-7.47-16.68-16.68-16.68Z"/>
  <path class="cls-5" d="M106.66,529v-16.65c0-9.2-7.46-16.68-16.66-16.68s-16.68,7.47-16.68,16.68v16.65c-9.2,0-16.66,7.47-16.66,16.67s7.46,16.68,16.66,16.68v16.65c0,9.2,7.47,16.68,16.68,16.68s16.66-7.47,16.66-16.68v-16.65c9.2,0,16.66-7.47,16.66-16.68s-7.46-16.67-16.66-16.67Z"/>
  <path class="cls-3" d="M644.67,41.54V24.89c0-9.2-9.86-16.67-22.01-16.67s-22.01,7.47-22.01,16.67v16.65c-12.15,0-21.98,7.47-21.98,16.68s9.83,16.68,21.98,16.68v16.65c0,9.2,9.86,16.68,22.01,16.68s22.01-7.47,22.01-16.68v-16.65c12.15,0,21.98-7.47,21.98-16.68s-9.83-16.68-21.98-16.68Z"/>
  <path class="cls-12" d="M369.97,490.68c-2.41,2.39-5.66,3.71-9.05,3.69l-76.61-.44c-3.39-.01-6.62-1.37-9-3.78-2.38-2.41-3.73-5.66-3.7-9.05l1.75-417.54c.01-2.75,.92-5.44,2.58-7.64L314.45,5.05C316.88,1.85,320.66-.02,324.68,0s7.81,1.94,10.2,5.17l38.08,51.29c1.66,2.2,2.53,4.89,2.52,7.67l-1.74,417.54c-.01,3.39-1.37,6.62-3.77,9Z"/>
  <path class="cls-9" d="M330.87,490.52c-2.33,2.28-5.55,3.67-9.06,3.63-7.05-.09-12.71-5.87-12.65-12.92l3.18-315.39c.07-7.06,5.84-12.71,12.89-12.61,7.05,.07,12.72,5.86,12.63,12.91l-3.16,315.39c-.04,3.52-1.5,6.7-3.83,8.99Z"/>
  <path class="cls-7" d="M412.09,469.12l-178.74-1.01c-4.11-.02-7.96,1.93-10.38,5.25-2.41,3.31-3.09,7.59-1.79,11.5l12.6,38.36c1.72,5.23,6.59,8.78,12.08,8.8l153.21,.87c3.47,.02,6.7-1.36,9.05-3.69,1.37-1.36,2.46-3.04,3.1-4.97l12.94-38.23c1.3-3.89,.67-8.17-1.72-11.52-2.38-3.33-6.23-5.34-10.33-5.36Z"/>
</svg>