<?xml version="1.0" encoding="UTF-8"?>
<svg id="Layer_1" data-name="Layer 1" xmlns="http://www.w3.org/2000/svg" viewBox="0 0 60.54 55">
  <defs>
    <style>
      .cls-1 {
        stroke: #fff;
        stroke-linecap: round;
        stroke-linejoin: round;
      }

      .cls-1, .cls-2 {
        fill: #b1c0c9;
      }
    </style>
  </defs>
  <g id="b005a4b0-753d-400d-8850-806ebe331bee">
    <g id="dad01179-6e7c-4b82-83f7-a629070026c9">
      <path id="_9e898d54-839b-4d53-a8f2-5fc999c8b741" data-name="9e898d54-839b-4d53-a8f2-5fc999c8b741" class="cls-2" d="M60.02,28.08c0-2.63-1.06-5.15-2.94-7-.44-.43-.58-1.07-.38-1.65,1.21-3.61-.73-7.52-4.35-8.74-.09-.03-.18-.06-.26-.08-.36-3.53-3.33-6.21-6.88-6.21-.07,0-.13-.2-.2-.2-1.57-2.24-4.11-3.61-6.85-3.7h-1.34c-.24,0-.48,.02-.72,.06-2.34,.36-4.07,2.37-4.08,4.74V49.7c0,2.45,1.82,4.51,4.25,4.8,.18,.01,.37,.01,.55,0h1.91c1.04-.04,2.06-.29,3-.74l.27-.12h.16c3.12,.73,6.3-.93,7.48-3.91h.4c2.53,.23,4.95-1.03,6.22-3.23,.9-1.63,1.05-3.57,.4-5.31,2.32-1.4,3.07-4.41,1.67-6.73-.09-.16-.2-.31-.31-.45,1.29-1.71,2-3.79,2-5.93Z"/>
      <path id="_4a3f2640-63ac-4201-90da-64d3f90b944c" data-name="4a3f2640-63ac-4201-90da-64d3f90b944c" class="cls-2" d="M57.02,28.08c0-2.63-1.06-5.15-2.94-7-.44-.43-.58-1.07-.38-1.65,1.21-3.61-.73-7.52-4.35-8.74-.09-.03-.18-.06-.26-.08-.36-3.53-3.33-6.21-6.88-6.21-.07,0-.13-.2-.2-.2-1.4-1.96-3.53-3.26-5.91-3.62-2.33,.36-4.06,2.36-4.08,4.72V49.7c0,2.34,1.7,4.33,4,4.73h.25c.96-.1,1.89-.37,2.75-.79,.55,.15,1.12,.22,1.69,.21,.34,0,.67-.03,1-.09,.14-.04,.28-.07,.43-.08,2.99,.38,5.84-1.35,6.88-4.18,3.46,0,3.78-.78,5-3,1-1.84,.22-3.73-.36-5.31,2.32-1.4,3.07-4.41,1.67-6.73-.09-.16-.2-.31-.31-.45,1.29-1.71,2-3.79,2-5.93Z"/>
      <path id="_17556f29-ba33-4b3d-bb82-ccd6359b7504" data-name="17556f29-ba33-4b3d-bb82-ccd6359b7504" class="cls-2" d="M34.02,34.5v19c-1.21-.21-.28,.06-1-.88v-18.12h1Z"/>
      <polygon id="b6f0ada1-4d19-414d-99e0-06358e3e1e0e" class="cls-2" points="41.02 17.5 40.23 18.39 37.64 19.69 34.02 20.5 32.02 20.5 32.02 17.5 41.02 17.5"/>
      <path id="d7cae277-ff7f-495d-9960-c37974e21bbb" class="cls-2" d="M24.17,.5c-.15-.01-.3-.01-.45,0h-1.34c-2.73,.08-5.27,1.44-6.85,3.68-.07,0-.13,.1-.2,.1-3.53,.04-6.49,2.71-6.88,6.22-3.68,1.09-5.77,4.96-4.68,8.64,.12,.41,.28,.8,.47,1.18C.04,23.65-.73,29.73,2.51,34c-1.64,2.15-1.22,5.23,.94,6.87,.14,.11,.28,.2,.43,.29-.26,.71-.4,1.46-.4,2.22,0,3.54,2.88,6.41,6.42,6.42,.33,0,.67-.03,1-.08,.99,2.44,3.37,4.02,6,4,.51,.03,1.03,0,1.54-.08h.15l.16,.07c.98,.49,2.06,.75,3.15,.79h2.12c2.18-.24,3.87-2.01,4-4.2V4.88c-.11-2.18-1.7-3.99-3.85-4.38Z"/>
      <path id="a6bca92c-fe38-4263-8ff6-b60abb861346" class="cls-2" d="M24.17,.5c-2.48,.3-4.71,1.64-6.15,3.68-.07,0-.13,.1-.2,.1-3.53,.04-6.48,2.71-6.87,6.22-3.68,1.09-5.77,4.96-4.68,8.64,.12,.41,.28,.8,.47,1.18-4.2,3.33-4.97,9.41-1.72,13.68-1.64,2.15-1.22,5.23,.94,6.87,.14,.11,.28,.2,.43,.29-.25,.71-.38,1.46-.37,2.22,0,3.54,1.46,6.12,5,6.12,.33,0,.68,1.05,1,1,.83,2.07,4,2.84,6.33,3.17,.1,.01,.21,.01,.31,0,.22,.02,.43,.02,.65,0,.57,.07,1.14,.06,1.71-.03,.94,.48,1.95,.77,3,.86,2.18-.24,3.87-2.01,4-4.2V4.88c-.11-2.18-1.7-3.99-3.85-4.38Z"/>
      <path id="fc7e8c38-1e7f-4a9b-98d1-40cc90559ac2" class="cls-2" d="M24.17,.5c-2.48,.3-4.72,1.64-6.15,3.69-.07,0-.13,.1-.2,.1-3.53,.04-6.47,2.7-6.87,6.21-3.68,1.09-5.77,4.96-4.68,8.64,.12,.41,.28,.8,.47,1.18-4.21,3.33-4.97,9.42-1.72,13.69-1.64,2.15-1.22,5.23,.94,6.87,.14,.11,.28,.2,.43,.29-.25,.71-.38,1.46-.37,2.22,0,3.54,1.46,6.11,5,6.11,.33,0,.68,1.05,1,1,.83,2.07,4,2.84,6.33,3.17,.1,.01,.21,.01,.31,0,.22,.02,.43,.02,.65,0,.57,.07,1.14,.06,1.71-.02,.94,.47,1.96,.76,3,.85,2.18-.24,3.87-2.01,4-4.2V4.89c-.1-2.18-1.7-4-3.85-4.39Z"/>
      <path id="_6e4a43b2-a52f-44ad-85d8-7e3e890cd057" data-name="6e4a43b2-a52f-44ad-85d8-7e3e890cd057" class="cls-2" d="M26.02,34.5v19c1-.21,.28,.06,1-.88v-18.12h-1Z"/>
      <polygon id="_4799e974-efea-4dd9-9dcc-c3032ded0542" data-name="4799e974-efea-4dd9-9dcc-c3032ded0542" class="cls-2" points="19.02 17.5 19.81 18.39 22.4 19.69 26.02 20.5 28.02 20.5 28.02 17.5 19.02 17.5"/>
      <path id="_9feab291-f62c-434f-9c48-8770263d009a" data-name="9feab291-f62c-434f-9c48-8770263d009a" class="cls-1" d="M23.72,.5h-1.34c-2.73,.08-5.27,1.45-6.85,3.68-.07,0-.13,.1-.2,.1-3.53,.04-6.49,2.71-6.88,6.22-3.68,1.09-5.77,4.95-4.68,8.63,.12,.41,.28,.81,.47,1.18C.03,23.64-.74,29.73,2.51,34c-1.64,2.15-1.23,5.22,.92,6.85,.14,.11,.29,.21,.45,.31-1.24,3.3,.42,6.98,3.71,8.22,1.05,.4,2.18,.51,3.29,.33,.99,2.44,3.37,4.02,6,4,.57,.04,1.13,0,1.69-.1,1.03,.52,2.16,.82,3.31,.86h1.84c2.29-.09,4.14-1.89,4.3-4.18V4.88c-.13-2.33-1.97-4.21-4.3-4.38Z"/>
      <path id="b9e61c7c-dea0-493c-8af2-ade1128e7395" class="cls-1" d="M.52,28.08c.16-4.91,4.28-8.75,9.18-8.59,4.68,.16,8.43,3.91,8.59,8.59"/>
      <path id="de3cf1b2-5416-4811-b966-f5e709a4ad7d" class="cls-1" d="M4.47,29.06c0-1.98,.91-3.84,2.47-5.06"/>
      <path id="_892c9aed-efd3-4740-b524-d1b8bbee67c2" data-name="892c9aed-efd3-4740-b524-d1b8bbee67c2" class="cls-1" d="M8.91,8.5c1.4-3.41,5.3-5.04,8.7-3.64,2.5,1.03,4.13,3.46,4.14,6.16"/>
      <path id="c606371a-b537-4a2d-82bc-4571b7a61d50" class="cls-1" d="M6.66,37.5c1.71-.73,3.68,.07,4.41,1.77,.54,1.27,.25,2.74-.73,3.71"/>
      <path id="_64803dfd-d116-47f3-801a-7992bf1edaf4" data-name="64803dfd-d116-47f3-801a-7992bf1edaf4" class="cls-1" d="M12.31,13.5c1.03-1,2.68-1,3.71,0"/>
      <path id="e92949b2-275c-4f78-9b45-a1892a2ccfee" class="cls-1" d="M13.3,46.1c1.04-1.03,2.71-1.03,3.75,0"/>
      <path id="_4c8758c4-1e49-4017-9c15-76f7dfc3ef85" data-name="4c8758c4-1e49-4017-9c15-76f7dfc3ef85" class="cls-1" d="M27.67,34.5h-11c-3.74,0-6.78-3.04-6.78-6.78v-2.11"/>
      <path id="e42323da-1b0b-447b-a924-2e6a02fb02b6" class="cls-1" d="M27.67,19.69h-4.89c-1.66,0-3-1.34-3-3v-.94"/>
      <path id="_6bce9005-34bd-4420-b48b-62cd267c2e52" data-name="6bce9005-34bd-4420-b48b-62cd267c2e52" class="cls-1" d="M27.67,40.42h-4.89c-1.66,0-3,1.34-3,3v.94"/>
      <g id="_9438c46b-91c3-40ef-8599-ed6cd8d7a524" data-name="9438c46b-91c3-40ef-8599-ed6cd8d7a524">
        <path id="e9dd444a-27e3-49f3-9130-cfd9a3508c23" class="cls-2" d="M21.73,52.28c-1.64,.21-3.15-.95-3.36-2.59s.95-3.15,2.59-3.36c.26-.03,.52-.03,.77,0,.55,0,1,.45,1,1s-.45,1-1,1c-.54-.12-1.07,.21-1.2,.75-.12,.54,.21,1.07,.75,1.2,.15,.03,.3,.03,.44,0,.55,0,1,.45,1,1s-.45,1-1,1Z"/>
      </g>
      <path id="b2277762-9736-42ce-b897-bf07ee1a7eef" class="cls-1" d="M22.73,51.28c-1.09,.17-2.12-.57-2.29-1.66-.17-1.09,.57-2.12,1.66-2.29,.21-.03,.42-.03,.63,0"/>
      <line id="_3abf062d-2916-4292-8e63-4d4734ca1a48" data-name="3abf062d-2916-4292-8e63-4d4734ca1a48" class="cls-1" x1="24.02" y1="28.5" x2="28.02" y2="28.5"/>
      <path id="_854ca944-9eca-4b56-9338-5fe9ef2fa8ff" data-name="854ca944-9eca-4b56-9338-5fe9ef2fa8ff" class="cls-1" d="M32.02,5.3V49.7c0,2.65,2.15,4.79,4.8,4.8h1.91c1.15-.05,2.27-.34,3.29-.86,.55,.14,1.12,.22,1.69,.21,2.65,0,5.02-1.62,6-4.08h.4c2.51,.19,4.91-1.08,6.15-3.27,.9-1.62,1.05-3.56,.4-5.3,2.32-1.39,3.08-4.39,1.69-6.71-.1-.17-.21-.33-.33-.48,2.93-3.87,2.59-9.29-.78-12.78-.53-.55-.71-1.34-.48-2.06,.99-3.34-.67-6.9-3.87-8.29-.5-.2-.87-.63-1-1.16-.73-3.13-3.52-5.35-6.73-5.35-.07,0-.13-.21-.2-.2-1.57-2.22-4.09-3.57-6.8-3.67h-1.34c-2.65,0-4.79,2.15-4.8,4.8Z"/>
      <path id="_185b92e6-dc85-43fc-8419-46358abe1a94" data-name="185b92e6-dc85-43fc-8419-46358abe1a94" class="cls-1" d="M60.02,28.08c-.16-4.91-4.28-8.75-9.18-8.59-4.68,.16-8.43,3.91-8.59,8.59"/>
      <path id="_332c148e-965d-42d0-b6ae-1efca39e9687" data-name="332c148e-965d-42d0-b6ae-1efca39e9687" class="cls-1" d="M56.07,29.06c0-1.98-.91-3.84-2.47-5.06"/>
      <path id="_360a987b-d220-41bd-afab-6fc6de68818f" data-name="360a987b-d220-41bd-afab-6fc6de68818f" class="cls-1" d="M51.63,8.5c-1.4-3.41-5.3-5.04-8.7-3.64-2.5,1.03-4.13,3.46-4.14,6.16"/>
      <path id="_43db05ce-bbf7-4e08-a8ff-95571beae4c5" data-name="43db05ce-bbf7-4e08-a8ff-95571beae4c5" class="cls-1" d="M53.88,37.5c-1.71-.73-3.68,.07-4.41,1.77-.54,1.27-.25,2.74,.73,3.71"/>
      <path id="_0bb056a8-1c08-4dfc-b303-1d4b24b31781" data-name="0bb056a8-1c08-4dfc-b303-1d4b24b31781" class="cls-1" d="M48.23,13.5c-1.04-1.03-2.71-1.03-3.75,0"/>
      <path id="d07bb196-1c98-4286-b0a4-5e464016f163" class="cls-1" d="M47.24,46.1c-1.04-1.03-2.71-1.03-3.75,0"/>
      <path id="_8151b944-acfa-4f82-9152-52ad11571f6b" data-name="8151b944-acfa-4f82-9152-52ad11571f6b" class="cls-1" d="M32.87,34.5h11c3.74,0,6.78-3.04,6.78-6.78v-2.11"/>
      <path id="_20f8e72e-d52b-4b23-9ba0-91598d596cd2" data-name="20f8e72e-d52b-4b23-9ba0-91598d596cd2" class="cls-1" d="M40.77,15.74v.94c0,1.66-1.34,3-3,3h-4.9"/>
      <path id="c2b49dbe-59f1-4595-b0a1-cec581f2121c" class="cls-1" d="M32.87,40.42h4.89c1.66,0,3,1.34,3,3v.94"/>
      <g id="_17ba476c-8bce-4470-b228-9e2b67f9dabd" data-name="17ba476c-8bce-4470-b228-9e2b67f9dabd">
        <path id="_911aaf65-6397-40d7-9699-170eb7bbcecf" data-name="911aaf65-6397-40d7-9699-170eb7bbcecf" class="cls-2" d="M38.81,52.28c-.55,0-1-.45-1-1s.45-1,1-1c.54,.12,1.07-.21,1.2-.75,.12-.54-.21-1.07-.75-1.2-.15-.03-.3-.03-.44,0-.55,0-1-.45-1-1s.45-1,1-1c1.64-.21,3.15,.95,3.36,2.59s-.95,3.15-2.59,3.36c-.26,.03-.52,.03-.77,0Z"/>
      </g>
      <path id="_6e52c3fc-beba-4535-88ab-c13d8152c55a" data-name="6e52c3fc-beba-4535-88ab-c13d8152c55a" class="cls-1" d="M37.81,51.28c1.09-.17,1.83-1.2,1.66-2.29-.14-.85-.81-1.52-1.66-1.66"/>
      <line id="_6011342b-cd8c-4e2c-986d-dd53ad20c28b" data-name="6011342b-cd8c-4e2c-986d-dd53ad20c28b" class="cls-1" x1="36.02" y1="28.5" x2="32.02" y2="28.5"/>
    </g>
  </g>
  <g id="b005a4b0-753d-400d-8850-806ebe331bee-2" data-name="b005a4b0-753d-400d-8850-806ebe331bee">
    <g id="dad01179-6e7c-4b82-83f7-a629070026c9-2" data-name="dad01179-6e7c-4b82-83f7-a629070026c9">
      <path id="_9e898d54-839b-4d53-a8f2-5fc999c8b741-2" data-name="9e898d54-839b-4d53-a8f2-5fc999c8b741" class="cls-2" d="M60.04,28.08c0-2.63-1.06-5.15-2.94-7-.44-.43-.58-1.07-.38-1.65,1.21-3.61-.73-7.52-4.35-8.74-.09-.03-.18-.06-.26-.08-.36-3.53-3.33-6.21-6.88-6.21-.07,0-.13-.2-.2-.2-1.57-2.24-4.11-3.61-6.85-3.7h-1.34c-.24,0-.48,.02-.72,.06-2.34,.36-4.07,2.37-4.08,4.74V49.7c0,2.45,1.82,4.51,4.25,4.8,.18,.01,.37,.01,.55,0h1.91c1.04-.04,2.06-.29,3-.74l.27-.12h.16c3.12,.73,6.3-.93,7.48-3.91h.4c2.53,.23,4.95-1.03,6.22-3.23,.9-1.63,1.05-3.57,.4-5.31,2.32-1.4,3.07-4.41,1.67-6.73-.09-.16-.2-.31-.31-.45,1.29-1.71,2-3.79,2-5.93Z"/>
      <path id="_4a3f2640-63ac-4201-90da-64d3f90b944c-2" data-name="4a3f2640-63ac-4201-90da-64d3f90b944c" class="cls-2" d="M57.04,28.08c0-2.63-1.06-5.15-2.94-7-.44-.43-.58-1.07-.38-1.65,1.21-3.61-.73-7.52-4.35-8.74-.09-.03-.18-.06-.26-.08-.36-3.53-3.33-6.21-6.88-6.21-.07,0-.13-.2-.2-.2-1.4-1.96-3.53-3.26-5.91-3.62-2.33,.36-4.06,2.36-4.08,4.72V49.7c0,2.34,1.7,4.33,4,4.73h.25c.96-.1,1.89-.37,2.75-.79,.55,.15,1.12,.22,1.69,.21,.34,0,.67-.03,1-.09,.14-.04,.28-.07,.43-.08,2.99,.38,5.84-1.35,6.88-4.18,3.46,0,3.78-.78,5-3,1-1.84,.22-3.73-.36-5.31,2.32-1.4,3.07-4.41,1.67-6.73-.09-.16-.2-.31-.31-.45,1.29-1.71,2-3.79,2-5.93Z"/>
      <path id="_17556f29-ba33-4b3d-bb82-ccd6359b7504-2" data-name="17556f29-ba33-4b3d-bb82-ccd6359b7504" class="cls-2" d="M34.04,34.5v19c-1.21-.21-.28,.06-1-.88v-18.12h1Z"/>
      <polygon id="b6f0ada1-4d19-414d-99e0-06358e3e1e0e-2" data-name="b6f0ada1-4d19-414d-99e0-06358e3e1e0e" class="cls-2" points="41.04 17.5 40.25 18.39 37.66 19.69 34.04 20.5 32.04 20.5 32.04 17.5 41.04 17.5"/>
      <path id="d7cae277-ff7f-495d-9960-c37974e21bbb-2" data-name="d7cae277-ff7f-495d-9960-c37974e21bbb" class="cls-2" d="M24.19,.5c-.15-.01-.3-.01-.45,0h-1.34c-2.73,.08-5.27,1.44-6.85,3.68-.07,0-.13,.1-.2,.1-3.53,.04-6.49,2.71-6.88,6.22-3.68,1.09-5.77,4.96-4.68,8.64,.12,.41,.28,.8,.47,1.18C.06,23.65-.71,29.73,2.53,34c-1.64,2.15-1.22,5.23,.94,6.87,.14,.11,.28,.2,.43,.29-.26,.71-.4,1.46-.4,2.22,0,3.54,2.88,6.41,6.42,6.42,.33,0,.67-.03,1-.08,.99,2.44,3.37,4.02,6,4,.51,.03,1.03,0,1.54-.08h.15l.16,.07c.98,.49,2.06,.75,3.15,.79h2.12c2.18-.24,3.87-2.01,4-4.2V4.88c-.11-2.18-1.7-3.99-3.85-4.38Z"/>
      <path id="a6bca92c-fe38-4263-8ff6-b60abb861346-2" data-name="a6bca92c-fe38-4263-8ff6-b60abb861346" class="cls-2" d="M24.19,.5c-2.48,.3-4.71,1.64-6.15,3.68-.07,0-.13,.1-.2,.1-3.53,.04-6.48,2.71-6.87,6.22-3.68,1.09-5.77,4.96-4.68,8.64,.12,.41,.28,.8,.47,1.18-4.2,3.33-4.97,9.41-1.72,13.68-1.64,2.15-1.22,5.23,.94,6.87,.14,.11,.28,.2,.43,.29-.25,.71-.38,1.46-.37,2.22,0,3.54,1.46,6.12,5,6.12,.33,0,.68,1.05,1,1,.83,2.07,4,2.84,6.33,3.17,.1,.01,.21,.01,.31,0,.22,.02,.43,.02,.65,0,.57,.07,1.14,.06,1.71-.03,.94,.48,1.95,.77,3,.86,2.18-.24,3.87-2.01,4-4.2V4.88c-.11-2.18-1.7-3.99-3.85-4.38Z"/>
      <path id="fc7e8c38-1e7f-4a9b-98d1-40cc90559ac2-2" data-name="fc7e8c38-1e7f-4a9b-98d1-40cc90559ac2" class="cls-2" d="M24.19,.5c-2.48,.3-4.72,1.64-6.15,3.69-.07,0-.13,.1-.2,.1-3.53,.04-6.47,2.7-6.87,6.21-3.68,1.09-5.77,4.96-4.68,8.64,.12,.41,.28,.8,.47,1.18-4.21,3.33-4.97,9.42-1.72,13.69-1.64,2.15-1.22,5.23,.94,6.87,.14,.11,.28,.2,.43,.29-.25,.71-.38,1.46-.37,2.22,0,3.54,1.46,6.11,5,6.11,.33,0,.68,1.05,1,1,.83,2.07,4,2.84,6.33,3.17,.1,.01,.21,.01,.31,0,.22,.02,.43,.02,.65,0,.57,.07,1.14,.06,1.71-.02,.94,.47,1.96,.76,3,.85,2.18-.24,3.87-2.01,4-4.2V4.89c-.1-2.18-1.7-4-3.85-4.39Z"/>
      <path id="_6e4a43b2-a52f-44ad-85d8-7e3e890cd057-2" data-name="6e4a43b2-a52f-44ad-85d8-7e3e890cd057" class="cls-2" d="M26.04,34.5v19c1-.21,.28,.06,1-.88v-18.12h-1Z"/>
      <polygon id="_4799e974-efea-4dd9-9dcc-c3032ded0542-2" data-name="4799e974-efea-4dd9-9dcc-c3032ded0542" class="cls-2" points="19.04 17.5 19.83 18.39 22.42 19.69 26.04 20.5 28.04 20.5 28.04 17.5 19.04 17.5"/>
      <path id="_9feab291-f62c-434f-9c48-8770263d009a-2" data-name="9feab291-f62c-434f-9c48-8770263d009a" class="cls-1" d="M23.74,.5h-1.34c-2.73,.08-5.27,1.45-6.85,3.68-.07,0-.13,.1-.2,.1-3.53,.04-6.49,2.71-6.88,6.22-3.68,1.09-5.77,4.95-4.68,8.63,.12,.41,.28,.81,.47,1.18C.05,23.64-.72,29.73,2.53,34c-1.64,2.15-1.23,5.22,.92,6.85,.14,.11,.29,.21,.45,.31-1.24,3.3,.42,6.98,3.71,8.22,1.05,.4,2.18,.51,3.29,.33,.99,2.44,3.37,4.02,6,4,.57,.04,1.13,0,1.69-.1,1.03,.52,2.16,.82,3.31,.86h1.84c2.29-.09,4.14-1.89,4.3-4.18V4.88c-.13-2.33-1.97-4.21-4.3-4.38Z"/>
      <path id="b9e61c7c-dea0-493c-8af2-ade1128e7395-2" data-name="b9e61c7c-dea0-493c-8af2-ade1128e7395" class="cls-1" d="M.54,28.08c.16-4.91,4.28-8.75,9.18-8.59,4.68,.16,8.43,3.91,8.59,8.59"/>
      <path id="de3cf1b2-5416-4811-b966-f5e709a4ad7d-2" data-name="de3cf1b2-5416-4811-b966-f5e709a4ad7d" class="cls-1" d="M4.49,29.06c0-1.98,.91-3.84,2.47-5.06"/>
      <path id="_892c9aed-efd3-4740-b524-d1b8bbee67c2-2" data-name="892c9aed-efd3-4740-b524-d1b8bbee67c2" class="cls-1" d="M8.93,8.5c1.4-3.41,5.3-5.04,8.7-3.64,2.5,1.03,4.13,3.46,4.14,6.16"/>
      <path id="c606371a-b537-4a2d-82bc-4571b7a61d50-2" data-name="c606371a-b537-4a2d-82bc-4571b7a61d50" class="cls-1" d="M6.68,37.5c1.71-.73,3.68,.07,4.41,1.77,.54,1.27,.25,2.74-.73,3.71"/>
      <path id="_64803dfd-d116-47f3-801a-7992bf1edaf4-2" data-name="64803dfd-d116-47f3-801a-7992bf1edaf4" class="cls-1" d="M12.33,13.5c1.03-1,2.68-1,3.71,0"/>
      <path id="e92949b2-275c-4f78-9b45-a1892a2ccfee-2" data-name="e92949b2-275c-4f78-9b45-a1892a2ccfee" class="cls-1" d="M13.32,46.1c1.04-1.03,2.71-1.03,3.75,0"/>
      <path id="_4c8758c4-1e49-4017-9c15-76f7dfc3ef85-2" data-name="4c8758c4-1e49-4017-9c15-76f7dfc3ef85" class="cls-1" d="M27.69,34.5h-11c-3.74,0-6.78-3.04-6.78-6.78v-2.11"/>
      <path id="e42323da-1b0b-447b-a924-2e6a02fb02b6-2" data-name="e42323da-1b0b-447b-a924-2e6a02fb02b6" class="cls-1" d="M27.69,19.69h-4.89c-1.66,0-3-1.34-3-3v-.94"/>
      <path id="_6bce9005-34bd-4420-b48b-62cd267c2e52-2" data-name="6bce9005-34bd-4420-b48b-62cd267c2e52" class="cls-1" d="M27.69,40.42h-4.89c-1.66,0-3,1.34-3,3v.94"/>
      <g id="_9438c46b-91c3-40ef-8599-ed6cd8d7a524-2" data-name="9438c46b-91c3-40ef-8599-ed6cd8d7a524">
        <path id="e9dd444a-27e3-49f3-9130-cfd9a3508c23-2" data-name="e9dd444a-27e3-49f3-9130-cfd9a3508c23" class="cls-2" d="M21.75,52.28c-1.64,.21-3.15-.95-3.36-2.59s.95-3.15,2.59-3.36c.26-.03,.52-.03,.77,0,.55,0,1,.45,1,1s-.45,1-1,1c-.54-.12-1.07,.21-1.2,.75-.12,.54,.21,1.07,.75,1.2,.15,.03,.3,.03,.44,0,.55,0,1,.45,1,1s-.45,1-1,1Z"/>
      </g>
      <path id="b2277762-9736-42ce-b897-bf07ee1a7eef-2" data-name="b2277762-9736-42ce-b897-bf07ee1a7eef" class="cls-1" d="M22.75,51.28c-1.09,.17-2.12-.57-2.29-1.66-.17-1.09,.57-2.12,1.66-2.29,.21-.03,.42-.03,.63,0"/>
      <line id="_3abf062d-2916-4292-8e63-4d4734ca1a48-2" data-name="3abf062d-2916-4292-8e63-4d4734ca1a48" class="cls-1" x1="24.04" y1="28.5" x2="28.04" y2="28.5"/>
      <path id="_854ca944-9eca-4b56-9338-5fe9ef2fa8ff-2" data-name="854ca944-9eca-4b56-9338-5fe9ef2fa8ff" class="cls-1" d="M32.04,5.3V49.7c0,2.65,2.15,4.79,4.8,4.8h1.91c1.15-.05,2.27-.34,3.29-.86,.55,.14,1.12,.22,1.69,.21,2.65,0,5.02-1.62,6-4.08h.4c2.51,.19,4.91-1.08,6.15-3.27,.9-1.62,1.05-3.56,.4-5.3,2.32-1.39,3.08-4.39,1.69-6.71-.1-.17-.21-.33-.33-.48,2.93-3.87,2.59-9.29-.78-12.78-.53-.55-.71-1.34-.48-2.06,.99-3.34-.67-6.9-3.87-8.29-.5-.2-.87-.63-1-1.16-.73-3.13-3.52-5.35-6.73-5.35-.07,0-.13-.21-.2-.2-1.57-2.22-4.09-3.57-6.8-3.67h-1.34c-2.65,0-4.79,2.15-4.8,4.8Z"/>
      <path id="_185b92e6-dc85-43fc-8419-46358abe1a94-2" data-name="185b92e6-dc85-43fc-8419-46358abe1a94" class="cls-1" d="M60.04,28.08c-.16-4.91-4.28-8.75-9.18-8.59-4.68,.16-8.43,3.91-8.59,8.59"/>
      <path id="_332c148e-965d-42d0-b6ae-1efca39e9687-2" data-name="332c148e-965d-42d0-b6ae-1efca39e9687" class="cls-1" d="M56.09,29.06c0-1.98-.91-3.84-2.47-5.06"/>
      <path id="_360a987b-d220-41bd-afab-6fc6de68818f-2" data-name="360a987b-d220-41bd-afab-6fc6de68818f" class="cls-1" d="M51.65,8.5c-1.4-3.41-5.3-5.04-8.7-3.64-2.5,1.03-4.13,3.46-4.14,6.16"/>
      <path id="_43db05ce-bbf7-4e08-a8ff-95571beae4c5-2" data-name="43db05ce-bbf7-4e08-a8ff-95571beae4c5" class="cls-1" d="M53.9,37.5c-1.71-.73-3.68,.07-4.41,1.77-.54,1.27-.25,2.74,.73,3.71"/>
      <path id="_0bb056a8-1c08-4dfc-b303-1d4b24b31781-2" data-name="0bb056a8-1c08-4dfc-b303-1d4b24b31781" class="cls-1" d="M48.25,13.5c-1.04-1.03-2.71-1.03-3.75,0"/>
      <path id="d07bb196-1c98-4286-b0a4-5e464016f163-2" data-name="d07bb196-1c98-4286-b0a4-5e464016f163" class="cls-1" d="M47.26,46.1c-1.04-1.03-2.71-1.03-3.75,0"/>
      <path id="_8151b944-acfa-4f82-9152-52ad11571f6b-2" data-name="8151b944-acfa-4f82-9152-52ad11571f6b" class="cls-1" d="M32.89,34.5h11c3.74,0,6.78-3.04,6.78-6.78v-2.11"/>
      <path id="_20f8e72e-d52b-4b23-9ba0-91598d596cd2-2" data-name="20f8e72e-d52b-4b23-9ba0-91598d596cd2" class="cls-1" d="M40.79,15.74v.94c0,1.66-1.34,3-3,3h-4.9"/>
      <path id="c2b49dbe-59f1-4595-b0a1-cec581f2121c-2" data-name="c2b49dbe-59f1-4595-b0a1-cec581f2121c" class="cls-1" d="M32.89,40.42h4.89c1.66,0,3,1.34,3,3v.94"/>
      <g id="_17ba476c-8bce-4470-b228-9e2b67f9dabd-2" data-name="17ba476c-8bce-4470-b228-9e2b67f9dabd">
        <path id="_911aaf65-6397-40d7-9699-170eb7bbcecf-2" data-name="911aaf65-6397-40d7-9699-170eb7bbcecf" class="cls-2" d="M38.83,52.28c-.55,0-1-.45-1-1s.45-1,1-1c.54,.12,1.07-.21,1.2-.75,.12-.54-.21-1.07-.75-1.2-.15-.03-.3-.03-.44,0-.55,0-1-.45-1-1s.45-1,1-1c1.64-.21,3.15,.95,3.36,2.59s-.95,3.15-2.59,3.36c-.26,.03-.52,.03-.77,0Z"/>
      </g>
      <path id="_6e52c3fc-beba-4535-88ab-c13d8152c55a-2" data-name="6e52c3fc-beba-4535-88ab-c13d8152c55a" class="cls-1" d="M37.83,51.28c1.09-.17,1.83-1.2,1.66-2.29-.14-.85-.81-1.52-1.66-1.66"/>
      <line id="_6011342b-cd8c-4e2c-986d-dd53ad20c28b-2" data-name="6011342b-cd8c-4e2c-986d-dd53ad20c28b" class="cls-1" x1="36.04" y1="28.5" x2="32.04" y2="28.5"/>
    </g>
  </g>
</svg>