<?xml version="1.0" encoding="UTF-8"?>
<svg id="Layer_1" data-name="Layer 1" xmlns="http://www.w3.org/2000/svg" viewBox="0 0 60.62 55.2">
  <defs>
    <style>
      .cls-1, .cls-2, .cls-3 {
        stroke: #fff;
        stroke-linecap: round;
        stroke-linejoin: round;
      }

      .cls-1, .cls-4 {
        fill: #30bdef;
      }

      .cls-2 {
        fill: none;
      }

      .cls-3, .cls-5 {
        fill: #b1c0c9;
      }
    </style>
  </defs>
  <g id="b005a4b0-753d-400d-8850-806ebe331bee">
    <g id="dad01179-6e7c-4b82-83f7-a629070026c9">
      <path id="_9e898d54-839b-4d53-a8f2-5fc999c8b741" data-name="9e898d54-839b-4d53-a8f2-5fc999c8b741" class="cls-5" d="M60.04,28.3c0-2.6-1.1-5.2-2.9-7-.4-.4-.6-1.1-.4-1.6,1.2-3.6-.7-7.5-4.3-8.7-.1,0-.2-.1-.3-.1-.4-3.5-3.3-6.2-6.9-6.2-.1,0-.1-.2-.2-.2-1.6-2.2-4.1-3.6-6.8-3.7h-1.3c-.2,0-.5,0-.7,.1-2.4,.2-4.2,2.2-4.2,4.6V49.9c0,2.4,1.8,4.5,4.2,4.8h2.4c1,0,2.1-.3,3-.7l.3-.1h.2c3.1,.7,6.3-.9,7.5-3.9h.4c2.5,.2,5-1,6.2-3.2,.9-1.6,1-3.6,.4-5.3,2.3-1.4,3.1-4.4,1.7-6.7-.1-.2-.2-.3-.3-.5,1.3-1.8,2-3.9,2-6Z"/>
      <path id="_4a3f2640-63ac-4201-90da-64d3f90b944c" data-name="4a3f2640-63ac-4201-90da-64d3f90b944c" class="cls-5" d="M57.04,28.3c0-2.6-1.1-5.2-2.9-7-.4-.4-.6-1.1-.4-1.6,1.2-3.6-.7-7.5-4.3-8.7-.1,0-.2-.1-.3-.1-.4-3.5-3.3-6.2-6.9-6.2-.1,0-.1-.2-.2-.2-1.4-2-3.5-3.3-5.9-3.6-2.3,.2-4.1,2.2-4.1,4.6V49.9c0,2.3,1.7,4.3,4,4.7h.2c1-.1,1.9-.4,2.8-.8,.6,.1,1.1,.2,1.7,.2,.3,0,.7,0,1-.1,.1,0,.3-.1,.4-.1,3,.4,5.8-1.4,6.9-4.2,3.5,0,3.8-.8,5-3,1-1.8,.2-3.7-.4-5.3,2.3-1.4,3.1-4.4,1.7-6.7-.1-.2-.2-.3-.3-.5,1.3-1.6,2-3.7,2-5.8Z"/>
      <path id="_17556f29-ba33-4b3d-bb82-ccd6359b7504" data-name="17556f29-ba33-4b3d-bb82-ccd6359b7504" class="cls-5" d="M34.04,34.7v19c-1.2-.2-.3,.1-1-.9v-18.1h1Z"/>
      <polygon id="b6f0ada1-4d19-414d-99e0-06358e3e1e0e" class="cls-5" points="41.04 17.7 40.24 18.6 37.64 19.9 34.04 20.7 32.04 20.7 32.04 17.7 41.04 17.7"/>
      <path id="d7cae277-ff7f-495d-9960-c37974e21bbb" class="cls-5" d="M24.24,.7h-1.8c-2.7,.1-5.3,1.4-6.9,3.7-.1,0-.1,.1-.2,.1-3.5,0-6.5,2.7-6.9,6.2-3.7,1.1-5.8,5-4.7,8.6,.2,.4,.3,.8,.5,1.2C.04,23.8-.76,29.9,2.54,34.2c-1.6,2.2-1.2,5.2,.9,6.9,.1,.1,.3,.2,.4,.3-.3,.7-.4,1.5-.4,2.2,0,3.5,2.9,6.4,6.4,6.4,.3,0,.7,0,1-.1,1,2.4,3.4,4,6,4,.5,0,1,0,1.5-.1h.1l.2,.1c1,.5,2.1,.8,3.1,.8h2.3c2.2-.2,3.9-2,4-4.2V5.1c-.1-2.2-1.7-4-3.8-4.4Z"/>
      <path id="a6bca92c-fe38-4263-8ff6-b60abb861346" class="cls-5" d="M24.24,.7c-2.5,.3-4.7,1.6-6.1,3.7-.1,0-.1,.1-.2,.1-3.5,0-6.5,2.7-6.9,6.2-3.7,1.1-5.8,5-4.7,8.6,.1,.4,.3,.8,.5,1.2-4.2,3.3-5,9.4-1.7,13.7-1.6,2.2-1.2,5.2,.9,6.9,.1,.1,.3,.2,.4,.3-.3,.7-.4,1.4-.4,2.2,0,3.5,1.5,6.1,5,6.1,.3,0,.7,1,1,1,.8,2.1,4,2.8,6.3,3.2h.9c.6,.1,1.1,.1,1.7,0,.9,.5,2,.8,3,.9,2.2-.2,3.9-2,4-4.2V5.1c0-2.2-1.6-4-3.7-4.4Z"/>
      <path id="fc7e8c38-1e7f-4a9b-98d1-40cc90559ac2" class="cls-5" d="M24.24,.7c-2.5,.3-4.7,1.6-6.1,3.7-.1,0-.1,.1-.2,.1-3.5,0-6.5,2.7-6.9,6.2-3.7,1.1-5.8,5-4.7,8.6,.1,.4,.3,.8,.5,1.2-4.2,3.3-5,9.4-1.7,13.7-1.6,2.2-1.2,5.2,.9,6.9,.1,.1,.3,.2,.4,.3-.3,.7-.4,1.4-.4,2.2,0,3.5,1.5,6.1,5,6.1,.3,0,.7,1,1,1,.8,2.1,4,2.8,6.3,3.2h.9c.6,.1,1.1,.1,1.7,0,.9,.5,2,.8,3,.8,2.2-.2,3.9-2,4-4.2V5.1c0-2.2-1.6-4-3.7-4.4Z"/>
      <path id="_6e4a43b2-a52f-44ad-85d8-7e3e890cd057" data-name="6e4a43b2-a52f-44ad-85d8-7e3e890cd057" class="cls-5" d="M26.04,34.7v19c1-.2,.3,.1,1-.9v-18.1h-1Z"/>
      <polygon id="_4799e974-efea-4dd9-9dcc-c3032ded0542" data-name="4799e974-efea-4dd9-9dcc-c3032ded0542" class="cls-5" points="19.04 17.7 19.84 18.6 22.44 19.9 26.04 20.7 28.04 20.7 28.04 17.7 19.04 17.7"/>
      <path id="_9feab291-f62c-434f-9c48-8770263d009a" data-name="9feab291-f62c-434f-9c48-8770263d009a" class="cls-3" d="M23.74,.7h-1.3c-2.7,.1-5.3,1.4-6.9,3.7-.1,0-.1,.1-.2,.1-3.5,0-6.5,2.7-6.9,6.2-3.7,1.1-5.8,5-4.7,8.6,.2,.4,.3,.8,.5,1.2C.04,23.8-.76,29.9,2.54,34.2c-1.6,2.1-1.2,5.2,.9,6.9,.1,.1,.3,.2,.5,.3-1.2,3.3,.4,7,3.7,8.2,1,.4,2.2,.5,3.3,.3,1,2.4,3.4,4,6,4,.6,0,1.1,0,1.7-.1,1,.5,2.2,.8,3.3,.9h1.8c2.3-.1,4.1-1.9,4.3-4.2V5.1c-.1-2.4-1.9-4.2-4.3-4.4Z"/>
      <path id="b9e61c7c-dea0-493c-8af2-ade1128e7395" class="cls-3" d="M.54,28.3c.2-4.9,4.3-8.8,9.2-8.6,4.7,.2,8.4,3.9,8.6,8.6"/>
      <path id="de3cf1b2-5416-4811-b966-f5e709a4ad7d" class="cls-3" d="M4.54,29.2c0-2,.9-3.8,2.5-5.1"/>
      <path id="_892c9aed-efd3-4740-b524-d1b8bbee67c2" data-name="892c9aed-efd3-4740-b524-d1b8bbee67c2" class="cls-3" d="M8.94,8.7c1.4-3.4,5.3-5,8.7-3.6,2.5,1,4.1,3.5,4.1,6.2"/>
      <path id="c606371a-b537-4a2d-82bc-4571b7a61d50" class="cls-3" d="M6.74,37.7c1.7-.7,3.7,.1,4.4,1.8,.5,1.3,.3,2.7-.7,3.7"/>
      <path id="_64803dfd-d116-47f3-801a-7992bf1edaf4" data-name="64803dfd-d116-47f3-801a-7992bf1edaf4" class="cls-3" d="M12.34,13.7c1-1,2.7-1,3.7,0"/>
      <path id="e92949b2-275c-4f78-9b45-a1892a2ccfee" class="cls-3" d="M13.34,46.3c1-1,2.7-1,3.7,0"/>
      <path id="_4c8758c4-1e49-4017-9c15-76f7dfc3ef85" data-name="4c8758c4-1e49-4017-9c15-76f7dfc3ef85" class="cls-3" d="M27.74,34.7h-11c-3.7,0-6.8-3-6.8-6.8v-2.1"/>
      <path id="e42323da-1b0b-447b-a924-2e6a02fb02b6" class="cls-3" d="M27.74,19.9h-4.9c-1.7,0-3-1.3-3-3v-.9"/>
      <path id="_6bce9005-34bd-4420-b48b-62cd267c2e52" data-name="6bce9005-34bd-4420-b48b-62cd267c2e52" class="cls-3" d="M27.74,40.6h-4.9c-1.7,0-3,1.3-3,3v.9"/>
      <g id="_9438c46b-91c3-40ef-8599-ed6cd8d7a524" data-name="9438c46b-91c3-40ef-8599-ed6cd8d7a524">
        <path id="e9dd444a-27e3-49f3-9130-cfd9a3508c23" class="cls-5" d="M21.74,52.5c-1.6,.2-3.1-.9-3.4-2.6s.9-3.1,2.6-3.4h.8c.6,0,1,.4,1,1s-.4,1-1,1c-.5-.1-1.1,.2-1.2,.8-.1,.5,.2,1.1,.8,1.2h.4c.6,0,1,.4,1,1s-.4,1-1,1Z"/>
      </g>
      <path id="b2277762-9736-42ce-b897-bf07ee1a7eef" class="cls-3" d="M22.74,51.5c-1.1,.2-2.1-.6-2.3-1.7-.1-1.1,.6-2.1,1.7-2.3h.6"/>
      <line id="_3abf062d-2916-4292-8e63-4d4734ca1a48" data-name="3abf062d-2916-4292-8e63-4d4734ca1a48" class="cls-2" x1="24.04" y1="28.7" x2="28.04" y2="28.7"/>
      <path id="_854ca944-9eca-4b56-9338-5fe9ef2fa8ff" data-name="854ca944-9eca-4b56-9338-5fe9ef2fa8ff" class="cls-3" d="M32.04,5.5V49.9c0,2.6,2.2,4.8,4.8,4.8h1.9c1.1,0,2.3-.3,3.3-.9,.6,.1,1.1,.2,1.7,.2,2.6,0,5-1.6,6-4.1h.4c2.5,.2,4.9-1.1,6.2-3.3,.9-1.6,1-3.6,.4-5.3,2.3-1.4,3.1-4.4,1.7-6.7-.1-.2-.2-.3-.3-.5,2.9-3.9,2.6-9.3-.8-12.8-.5-.5-.7-1.3-.5-2.1,1-3.3-.7-6.9-3.9-8.3-.5-.2-.9-.6-1-1.2-.7-3.1-3.5-5.3-6.7-5.3-.1,0-.1-.2-.2-.2-1.6-2.2-4.1-3.6-6.8-3.7h-1.3c-2.7,.2-4.9,2.3-4.9,5Z"/>
      <path id="_185b92e6-dc85-43fc-8419-46358abe1a94" data-name="185b92e6-dc85-43fc-8419-46358abe1a94" class="cls-3" d="M60.04,28.3c-.2-4.9-4.3-8.8-9.2-8.6-4.7,.2-8.4,3.9-8.6,8.6"/>
      <path id="_332c148e-965d-42d0-b6ae-1efca39e9687" data-name="332c148e-965d-42d0-b6ae-1efca39e9687" class="cls-3" d="M56.14,29.2c0-2-.9-3.8-2.5-5.1"/>
      <path id="_360a987b-d220-41bd-afab-6fc6de68818f" data-name="360a987b-d220-41bd-afab-6fc6de68818f" class="cls-3" d="M51.64,8.7c-1.4-3.4-5.3-5-8.7-3.6-2.5,1-4.1,3.5-4.1,6.2"/>
      <path id="_43db05ce-bbf7-4e08-a8ff-95571beae4c5" data-name="43db05ce-bbf7-4e08-a8ff-95571beae4c5" class="cls-3" d="M53.94,37.7c-1.7-.7-3.7,.1-4.4,1.8-.5,1.3-.3,2.7,.7,3.7"/>
      <path id="_0bb056a8-1c08-4dfc-b303-1d4b24b31781" data-name="0bb056a8-1c08-4dfc-b303-1d4b24b31781" class="cls-3" d="M48.24,13.7c-1-1-2.7-1-3.8,0"/>
      <path id="d07bb196-1c98-4286-b0a4-5e464016f163" class="cls-3" d="M47.24,46.3c-1-1-2.7-1-3.8,0"/>
      <path id="_8151b944-acfa-4f82-9152-52ad11571f6b" data-name="8151b944-acfa-4f82-9152-52ad11571f6b" class="cls-3" d="M32.94,34.7h11c3.7,0,6.8-3,6.8-6.8v-2.1"/>
      <path id="_20f8e72e-d52b-4b23-9ba0-91598d596cd2" data-name="20f8e72e-d52b-4b23-9ba0-91598d596cd2" class="cls-3" d="M40.84,15.9v.9c0,1.7-1.3,3-3,3h-4.9"/>
      <path id="c2b49dbe-59f1-4595-b0a1-cec581f2121c" class="cls-3" d="M32.94,40.6h4.9c1.7,0,3,1.3,3,3v.9"/>
      <g id="_17ba476c-8bce-4470-b228-9e2b67f9dabd" data-name="17ba476c-8bce-4470-b228-9e2b67f9dabd">
        <path id="_911aaf65-6397-40d7-9699-170eb7bbcecf" data-name="911aaf65-6397-40d7-9699-170eb7bbcecf" class="cls-5" d="M38.84,52.5c-.6,0-1-.4-1-1s.4-1,1-1c.5,.1,1.1-.2,1.2-.8,.1-.5-.2-1.1-.8-1.2h-.4c-.6,0-1-.4-1-1s.4-1,1-1c1.6-.2,3.1,.9,3.4,2.6s-.9,3.1-2.6,3.4h-.8Z"/>
      </g>
      <path id="_6e52c3fc-beba-4535-88ab-c13d8152c55a" data-name="6e52c3fc-beba-4535-88ab-c13d8152c55a" class="cls-3" d="M37.84,51.5c1.1-.2,1.8-1.2,1.7-2.3-.1-.9-.8-1.5-1.7-1.7"/>
      <line id="_6011342b-cd8c-4e2c-986d-dd53ad20c28b" data-name="6011342b-cd8c-4e2c-986d-dd53ad20c28b" class="cls-2" x1="36.04" y1="28.7" x2="32.04" y2="28.7"/>
    </g>
  </g>
  <g id="b005a4b0-753d-400d-8850-806ebe331bee-2" data-name="b005a4b0-753d-400d-8850-806ebe331bee">
    <g id="dad01179-6e7c-4b82-83f7-a629070026c9-2" data-name="dad01179-6e7c-4b82-83f7-a629070026c9">
      <path id="_9e898d54-839b-4d53-a8f2-5fc999c8b741-2" data-name="9e898d54-839b-4d53-a8f2-5fc999c8b741" class="cls-4" d="M60.04,28.3c0-2.6-1.1-5.2-2.9-7-.4-.4-.6-1.1-.4-1.6,1.2-3.6-.7-7.5-4.3-8.7-.1,0-.2-.1-.3-.1-.4-3.5-3.3-6.2-6.9-6.2-.1,0-.1-.2-.2-.2-1.6-2.2-4.1-3.6-6.8-3.7h-1.3c-.2,0-.5,0-.7,.1-2.3,.4-4.1,2.4-4.1,4.7V50c0,2.4,1.8,4.5,4.2,4.8h2.4c1,0,2.1-.3,3-.7l.3-.1h.2c3.1,.7,6.3-.9,7.5-3.9h.4c2.5,.2,5-1,6.2-3.2,.9-1.6,1-3.6,.4-5.3,2.3-1.4,3.1-4.4,1.7-6.7-.1-.2-.2-.3-.3-.5,1.2-1.9,1.9-4,1.9-6.1Z"/>
      <path id="_4a3f2640-63ac-4201-90da-64d3f90b944c-2" data-name="4a3f2640-63ac-4201-90da-64d3f90b944c" class="cls-4" d="M57.04,28.3c0-2.6-1.1-5.2-2.9-7-.4-.4-.6-1.1-.4-1.6,1.2-3.6-.7-7.5-4.3-8.7-.1,0-.2-.1-.3-.1-.4-3.5-3.3-6.2-6.9-6.2-.1,0-.1-.2-.2-.2-1.4-2-3.5-3.3-5.9-3.6-2.3,.4-4.1,2.4-4.1,4.7V50c0,2.3,1.7,4.3,4,4.7h.2c1-.1,1.9-.4,2.8-.8,.6,.1,1.1,.2,1.7,.2,.3,0,.7,0,1-.1,.1,0,.3-.1,.4-.1,3,.4,5.8-1.4,6.9-4.2,3.5,0,3.8-.8,5-3,1-1.8,.2-3.7-.4-5.3,2.3-1.4,3.1-4.4,1.7-6.7-.1-.2-.2-.3-.3-.5,1.3-1.7,2-3.8,2-5.9Z"/>
      <path id="_17556f29-ba33-4b3d-bb82-ccd6359b7504-2" data-name="17556f29-ba33-4b3d-bb82-ccd6359b7504" class="cls-4" d="M34.04,34.7v19c-1.2-.2-.3,.1-1-.9v-18.1h1Z"/>
      <polygon id="b6f0ada1-4d19-414d-99e0-06358e3e1e0e-2" data-name="b6f0ada1-4d19-414d-99e0-06358e3e1e0e" class="cls-4" points="41.04 17.7 40.34 18.6 37.74 19.9 34.04 20.7 32.04 20.7 32.04 17.7 41.04 17.7"/>
      <path id="d7cae277-ff7f-495d-9960-c37974e21bbb-2" data-name="d7cae277-ff7f-495d-9960-c37974e21bbb" class="cls-4" d="M24.24,.7h-1.8c-2.7,.1-5.3,1.4-6.9,3.7-.1,0-.1,.1-.2,.1-3.5,0-6.5,2.7-6.9,6.2-3.7,1.1-5.8,5-4.7,8.6,.1,.4,.3,.8,.5,1.2C.04,23.8-.76,29.9,2.54,34.2c-1.6,2.2-1.2,5.2,.9,6.9,.1,.1,.3,.2,.4,.3-.3,.7-.4,1.5-.4,2.2,0,3.5,2.9,6.4,6.4,6.4,.3,0,.7,0,1-.1,1,2.4,3.4,4,6,4,.5,0,1,0,1.5-.1h.1l.2,.1c1,.5,2.1,.8,3.1,.8h2.3c2.2-.2,3.9-2,4-4.2V5.1c-.1-2.2-1.7-4-3.8-4.4Z"/>
      <path id="a6bca92c-fe38-4263-8ff6-b60abb861346-2" data-name="a6bca92c-fe38-4263-8ff6-b60abb861346" class="cls-4" d="M24.24,.7c-2.5,.3-4.7,1.6-6.1,3.7-.1,0-.1,.1-.2,.1-3.5,0-6.5,2.7-6.9,6.2-3.7,1.1-5.8,5-4.7,8.6,.1,.4,.3,.8,.5,1.2-4.2,3.3-5,9.4-1.7,13.7-1.6,2.2-1.2,5.2,.9,6.9,.1,.1,.3,.2,.4,.3-.2,.7-.4,1.4-.4,2.2,0,3.5,1.5,6.1,5,6.1,.3,0,.7,1,1,1,.8,2.1,4,2.8,6.3,3.2h.9c.6,.1,1.1,.1,1.7,0,.9,.5,2,.8,3,.9,2.2-.2,3.9-2,4-4.2V5.1c0-2.2-1.6-4-3.7-4.4Z"/>
      <path id="fc7e8c38-1e7f-4a9b-98d1-40cc90559ac2-2" data-name="fc7e8c38-1e7f-4a9b-98d1-40cc90559ac2" class="cls-4" d="M24.24,.7c-2.5,.3-4.7,1.6-6.1,3.7-.1,0-.1,.1-.2,.1-3.5,0-6.5,2.7-6.9,6.2-3.7,1.1-5.8,5-4.7,8.6,.1,.4,.3,.8,.5,1.2-4.2,3.3-5,9.4-1.7,13.7-1.6,2.2-1.2,5.2,.9,6.9,.1,.1,.3,.2,.4,.3-.2,.7-.4,1.4-.4,2.2,0,3.5,1.5,6.1,5,6.1,.3,0,.7,1,1,1,.8,2.1,4,2.8,6.3,3.2h.9c.6,.1,1.1,.1,1.7,0,.9,.5,2,.8,3,.8,2.2-.2,3.9-2,4-4.2V5.1c0-2.2-1.6-4-3.7-4.4Z"/>
      <path id="_6e4a43b2-a52f-44ad-85d8-7e3e890cd057-2" data-name="6e4a43b2-a52f-44ad-85d8-7e3e890cd057" class="cls-4" d="M26.04,34.7v19c1-.2,.3,.1,1-.9v-18.1h-1Z"/>
      <polygon id="_4799e974-efea-4dd9-9dcc-c3032ded0542-2" data-name="4799e974-efea-4dd9-9dcc-c3032ded0542" class="cls-4" points="19.04 17.7 19.84 18.6 22.44 19.9 26.04 20.7 28.04 20.7 28.04 17.7 19.04 17.7"/>
      <path id="_9feab291-f62c-434f-9c48-8770263d009a-2" data-name="9feab291-f62c-434f-9c48-8770263d009a" class="cls-1" d="M23.74,.7h-1.3c-2.7,.1-5.3,1.4-6.9,3.7-.1,0-.1,.1-.2,.1-3.5,0-6.5,2.7-6.9,6.2-3.7,1.1-5.8,5-4.7,8.6,.1,.4,.3,.8,.5,1.2C.04,23.8-.76,29.9,2.54,34.2c-1.6,2.1-1.2,5.2,.9,6.9,.1,.1,.3,.2,.5,.3-1.2,3.3,.4,7,3.7,8.2,1,.4,2.2,.5,3.3,.3,1,2.4,3.4,4,6,4,.6,0,1.1,0,1.7-.1,1,.5,2.2,.8,3.3,.9h1.8c2.3-.1,4.1-1.9,4.3-4.2V5.1c-.1-2.4-1.9-4.2-4.3-4.4Z"/>
      <path id="b9e61c7c-dea0-493c-8af2-ade1128e7395-2" data-name="b9e61c7c-dea0-493c-8af2-ade1128e7395" class="cls-1" d="M.54,28.3c.2-4.9,4.3-8.8,9.2-8.6,4.7,.2,8.4,3.9,8.6,8.6"/>
      <path id="de3cf1b2-5416-4811-b966-f5e709a4ad7d-2" data-name="de3cf1b2-5416-4811-b966-f5e709a4ad7d" class="cls-1" d="M4.54,29.2c0-2,.9-3.8,2.5-5.1"/>
      <path id="_892c9aed-efd3-4740-b524-d1b8bbee67c2-2" data-name="892c9aed-efd3-4740-b524-d1b8bbee67c2" class="cls-1" d="M8.94,8.7c1.4-3.4,5.3-5,8.7-3.6,2.5,1,4.1,3.5,4.1,6.2"/>
      <path id="c606371a-b537-4a2d-82bc-4571b7a61d50-2" data-name="c606371a-b537-4a2d-82bc-4571b7a61d50" class="cls-1" d="M6.74,37.7c1.7-.7,3.7,.1,4.4,1.8,.5,1.3,.3,2.7-.7,3.7"/>
      <path id="_64803dfd-d116-47f3-801a-7992bf1edaf4-2" data-name="64803dfd-d116-47f3-801a-7992bf1edaf4" class="cls-1" d="M12.34,13.7c1-1,2.7-1,3.7,0"/>
      <path id="e92949b2-275c-4f78-9b45-a1892a2ccfee-2" data-name="e92949b2-275c-4f78-9b45-a1892a2ccfee" class="cls-1" d="M13.34,46.3c1-1,2.7-1,3.8,0"/>
      <path id="_4c8758c4-1e49-4017-9c15-76f7dfc3ef85-2" data-name="4c8758c4-1e49-4017-9c15-76f7dfc3ef85" class="cls-1" d="M27.74,34.7h-11c-3.7,0-6.8-3-6.8-6.8v-2.1"/>
      <path id="e42323da-1b0b-447b-a924-2e6a02fb02b6-2" data-name="e42323da-1b0b-447b-a924-2e6a02fb02b6" class="cls-1" d="M27.74,19.9h-4.9c-1.7,0-3-1.3-3-3v-.9"/>
      <path id="_6bce9005-34bd-4420-b48b-62cd267c2e52-2" data-name="6bce9005-34bd-4420-b48b-62cd267c2e52" class="cls-1" d="M27.74,40.6h-4.9c-1.7,0-3,1.3-3,3v.9"/>
      <g id="_9438c46b-91c3-40ef-8599-ed6cd8d7a524-2" data-name="9438c46b-91c3-40ef-8599-ed6cd8d7a524">
        <path id="e9dd444a-27e3-49f3-9130-cfd9a3508c23-2" data-name="e9dd444a-27e3-49f3-9130-cfd9a3508c23" class="cls-4" d="M21.84,52.5c-1.6,.2-3.1-.9-3.4-2.6s.9-3.1,2.6-3.4h.8c.6,0,1,.4,1,1s-.4,1-1,1c-.5-.1-1.1,.2-1.2,.8-.1,.5,.2,1.1,.8,1.2h.4c.6,0,1,.4,1,1s-.5,1-1,1Z"/>
      </g>
      <path id="b2277762-9736-42ce-b897-bf07ee1a7eef-2" data-name="b2277762-9736-42ce-b897-bf07ee1a7eef" class="cls-1" d="M22.84,51.5c-1.1,.2-2.1-.6-2.3-1.7-.2-1.1,.5-2.1,1.6-2.3h.6"/>
      <line id="_3abf062d-2916-4292-8e63-4d4734ca1a48-2" data-name="3abf062d-2916-4292-8e63-4d4734ca1a48" class="cls-1" x1="24.04" y1="28.7" x2="28.04" y2="28.7"/>
      <path id="_854ca944-9eca-4b56-9338-5fe9ef2fa8ff-2" data-name="854ca944-9eca-4b56-9338-5fe9ef2fa8ff" class="cls-1" d="M32.04,5.5V49.9c0,2.6,2.2,4.8,4.8,4.8h1.9c1.1,0,2.3-.3,3.3-.9,.6,.1,1.1,.2,1.7,.2,2.6,0,5-1.6,6-4.1h.4c2.5,.2,4.9-1.1,6.2-3.3,.9-1.6,1-3.6,.4-5.3,2.3-1.4,3.1-4.4,1.7-6.7-.1-.2-.2-.3-.3-.5,2.9-3.9,2.6-9.3-.8-12.8-.5-.5-.7-1.3-.5-2.1,1-3.3-.7-6.9-3.9-8.3-.5-.2-.9-.6-1-1.2-.7-3.1-3.5-5.3-6.7-5.3-.1,0-.1-.2-.2-.2-1.6-2.2-4.1-3.6-6.8-3.7h-1.3c-2.7,.2-4.9,2.3-4.9,5Z"/>
      <path id="_185b92e6-dc85-43fc-8419-46358abe1a94-2" data-name="185b92e6-dc85-43fc-8419-46358abe1a94" class="cls-1" d="M60.04,28.3c-.2-4.9-4.3-8.8-9.2-8.6-4.7,.2-8.4,3.9-8.6,8.6"/>
      <path id="_332c148e-965d-42d0-b6ae-1efca39e9687-2" data-name="332c148e-965d-42d0-b6ae-1efca39e9687" class="cls-1" d="M56.14,29.2c0-2-.9-3.8-2.5-5.1"/>
      <path id="_360a987b-d220-41bd-afab-6fc6de68818f-2" data-name="360a987b-d220-41bd-afab-6fc6de68818f" class="cls-1" d="M51.74,8.7c-1.4-3.4-5.3-5-8.7-3.6-2.5,1-4.1,3.5-4.1,6.2"/>
      <path id="_43db05ce-bbf7-4e08-a8ff-95571beae4c5-2" data-name="43db05ce-bbf7-4e08-a8ff-95571beae4c5" class="cls-1" d="M53.94,37.7c-1.7-.7-3.7,.1-4.4,1.8-.5,1.3-.3,2.7,.7,3.7"/>
      <path id="_0bb056a8-1c08-4dfc-b303-1d4b24b31781-2" data-name="0bb056a8-1c08-4dfc-b303-1d4b24b31781" class="cls-1" d="M48.34,13.7c-1-1-2.7-1-3.8,0"/>
      <path id="d07bb196-1c98-4286-b0a4-5e464016f163-2" data-name="d07bb196-1c98-4286-b0a4-5e464016f163" class="cls-1" d="M47.34,46.3c-1-1-2.7-1-3.8,0"/>
      <path id="_8151b944-acfa-4f82-9152-52ad11571f6b-2" data-name="8151b944-acfa-4f82-9152-52ad11571f6b" class="cls-1" d="M32.94,34.7h11c3.7,0,6.8-3,6.8-6.8v-2.1"/>
      <path id="_20f8e72e-d52b-4b23-9ba0-91598d596cd2-2" data-name="20f8e72e-d52b-4b23-9ba0-91598d596cd2" class="cls-1" d="M40.84,15.9v.9c0,1.7-1.3,3-3,3h-4.9"/>
      <path id="c2b49dbe-59f1-4595-b0a1-cec581f2121c-2" data-name="c2b49dbe-59f1-4595-b0a1-cec581f2121c" class="cls-1" d="M32.94,40.6h4.9c1.7,0,3,1.3,3,3v.9"/>
      <g id="_17ba476c-8bce-4470-b228-9e2b67f9dabd-2" data-name="17ba476c-8bce-4470-b228-9e2b67f9dabd">
        <path id="_911aaf65-6397-40d7-9699-170eb7bbcecf-2" data-name="911aaf65-6397-40d7-9699-170eb7bbcecf" class="cls-4" d="M38.84,52.5c-.6,0-1-.4-1-1s.4-1,1-1c.5,.1,1.1-.2,1.2-.8,.1-.5-.2-1.1-.8-1.2h-.4c-.6,0-1-.4-1-1s.4-1,1-1c1.6-.2,3.1,.9,3.4,2.6s-.9,3.1-2.6,3.4h-.8Z"/>
      </g>
      <path id="_6e52c3fc-beba-4535-88ab-c13d8152c55a-2" data-name="6e52c3fc-beba-4535-88ab-c13d8152c55a" class="cls-1" d="M37.84,51.5c1.1-.2,1.8-1.2,1.7-2.3-.1-.9-.8-1.5-1.7-1.7"/>
      <line id="_6011342b-cd8c-4e2c-986d-dd53ad20c28b-2" data-name="6011342b-cd8c-4e2c-986d-dd53ad20c28b" class="cls-1" x1="36.04" y1="28.7" x2="32.04" y2="28.7"/>
    </g>
  </g>
</svg>