<?xml version="1.0" encoding="utf-8"?>
<!-- Generator: Adobe Illustrator 27.0.0, SVG Export Plug-In . SVG Version: 6.00 Build 0)  -->
<svg version="1.1" id="Layer_1" xmlns="http://www.w3.org/2000/svg" xmlns:xlink="http://www.w3.org/1999/xlink" x="0px" y="0px"
	 viewBox="0 0 800 800" style="enable-background:new 0 0 800 800;" xml:space="preserve">
<style type="text/css">
	.st0{fill:#40D3D3;}
	.st1{fill:#71ABCC;}
	.st2{fill:#219BB7;}
	.st3{fill:#48CFAD;}
	.st4{fill:#5D9CEC;}
	.st5{fill:#A0D468;}
	.st6{fill:#AC92EB;}
	.st7{fill:#ED5564;}
	.st8{fill:#FFCE54;}
	.st9{fill:#FC6E51;}
	.st10{fill:#83D2E5;}
	.st11{fill:#4BA4BF;}
	.st12{fill:#C1C1C1;}
</style>
<path class="st0" d="M433.4,713.7c-2.3,2.3-5.5,3.7-9,3.7l-38.3-0.2c-3.4,0-6.6-1.4-9-3.8s-3.7-5.7-3.7-9.1l0.6-134.1
	c0-3.4,1.4-6.6,3.8-9c2.4-2.4,5.7-3.7,9-3.7l38.3,0.2c7.1,0,12.8,5.8,12.7,12.8l-0.6,134C437.2,708.2,435.7,711.4,433.4,713.7z"/>
<path class="st1" d="M405.5,659.8c-11.9-0.1-23.2,4.5-31.7,12.9c-8.5,8.4-13.2,19.6-13.2,31.5c-0.1,24.6,19.9,44.8,44.5,44.9
	c11.9,0.1,23.2-4.5,31.7-12.9c8.5-8.4,13.2-19.6,13.2-31.5C450.1,680.1,430.1,660,405.5,659.8z"/>
<polygon class="st2" points="373.7,634.1 437.5,634.5 437.6,609 373.8,608.6 "/>
<path class="st3" d="M607.1,596.5c0,10.5-8.5,19-19,19s-19-8.5-19-19s8.5-19,19-19S607.1,586,607.1,596.5z"/>
<path class="st4" d="M116.7,333.3c0,9.2-7.5,16.7-16.7,16.7s-16.7-7.5-16.7-16.7s7.5-16.7,16.7-16.7
	C109.2,316.7,116.7,324.1,116.7,333.3z"/>
<path class="st5" d="M783.3,300c0,9.2-7.5,16.7-16.7,16.7c-9.2,0-16.7-7.5-16.7-16.7c0-9.2,7.5-16.7,16.7-16.7
	C775.9,283.3,783.3,290.8,783.3,300z"/>
<path class="st6" d="M150,100c0,9.2-7.5,16.7-16.7,16.7s-16.7-7.5-16.7-16.7s7.5-16.7,16.7-16.7C142.5,83.3,150,90.8,150,100z"/>
<path class="st7" d="M425.7,71.5c0,9.2-7.5,16.7-16.7,16.7c-9.2,0-16.7-7.4-16.7-16.7c0-9.2,7.5-16.7,16.7-16.7
	C418.3,54.8,425.7,62.3,425.7,71.5z"/>
<path class="st8" d="M583.3,733.3c0,9.2-7.5,16.7-16.7,16.7c-9.2,0-16.7-7.5-16.7-16.7c0-9.2,7.5-16.7,16.7-16.7
	C575.9,716.7,583.3,724.1,583.3,733.3z"/>
<path class="st4" d="M700,500v-16.7c0-9.2-7.4-16.6-16.7-16.6c-9.2,0-16.7,7.4-16.7,16.6V500c-9.2,0-16.7,7.5-16.7,16.7
	c0,9.2,7.5,16.7,16.7,16.7V550c0,9.2,7.5,16.7,16.7,16.7c9.2,0,16.7-7.5,16.7-16.7v-16.7c9.2,0,16.7-7.4,16.7-16.7
	C716.7,507.5,709.2,500,700,500z"/>
<path class="st9" d="M190,579.8v-16.7c0-9.2-7.5-16.7-16.7-16.7s-16.7,7.5-16.7,16.7v16.7c-9.2,0-16.7,7.5-16.7,16.7
	c0,9.2,7.5,16.7,16.7,16.7v16.7c0,9.2,7.5,16.7,16.7,16.7c9.2,0,16.7-7.5,16.7-16.7v-16.7c9.2,0,16.7-7.5,16.7-16.7
	C206.7,587.3,199.2,579.8,190,579.8z"/>
<path class="st3" d="M728,92.3V75.7c0-9.2-9.9-16.7-22-16.7c-12.2,0-22,7.5-22,16.7v16.7c-12.2,0-22,7.5-22,16.7s9.8,16.7,22,16.7
	v16.7c0,9.2,9.9,16.7,22,16.7c12.2,0,22-7.5,22-16.7v-16.7c12.1,0,22-7.5,22-16.7S740.2,92.3,728,92.3z"/>
<path class="st10" d="M453.3,541.5c-2.4,2.4-5.7,3.7-9,3.7l-76.6-0.4c-3.4,0-6.6-1.4-9-3.8s-3.7-5.7-3.7-9.1l1.7-417.5
	c0-2.8,0.9-5.4,2.6-7.6l38.5-50.9c2.4-3.2,6.2-5.1,10.2-5c4,0,7.8,1.9,10.2,5.2l38.1,51.3c1.7,2.2,2.5,4.9,2.5,7.7l-1.7,417.5
	C457.1,535.8,455.7,539.1,453.3,541.5z"/>
<path class="st11" d="M414.2,541.3c-2.3,2.3-5.5,3.7-9.1,3.6c-7.1-0.1-12.7-5.9-12.6-12.9l3.2-315.4c0.1-7.1,5.8-12.7,12.9-12.6
	c7,0.1,12.7,5.9,12.6,12.9L418,532.3C418,535.8,416.5,539,414.2,541.3z"/>
<path class="st12" d="M495.4,519.9l-178.7-1c-4.1,0-8,1.9-10.4,5.3c-2.4,3.3-3.1,7.6-1.8,11.5l12.6,38.4c1.7,5.2,6.6,8.8,12.1,8.8
	l153.2,0.9c3.5,0,6.7-1.4,9-3.7c1.4-1.4,2.5-3,3.1-5l12.9-38.2c1.3-3.9,0.7-8.2-1.7-11.5C503.4,521.9,499.5,519.9,495.4,519.9z"/>
</svg>
